<?xml version="1.0" encoding="UTF-8"?>
<svg width="100px" height="100px" viewBox="0 0 100 100" version="1.1" xmlns="http://www.w3.org/2000/svg" xmlns:xlink="http://www.w3.org/1999/xlink">
    <!-- Generator: Sketch 47.1 (45422) - http://www.bohemiancoding.com/sketch -->
    <title>element-api-v2</title>
    <desc>Created with Sketch.</desc>
    <defs></defs>
    <g id="Icons" stroke="none" stroke-width="1" fill="none" fill-rule="evenodd">
        <g id="element-api-v2">
            <circle id="Oval" fill="#0D78F2" fill-rule="nonzero" cx="50" cy="50" r="50"></circle>
            <path d="M56.2004892,27 C66.0610537,27 72.9588235,35.8236535 72.0706868,44.5414191 C77.8780505,45.6778447 82.2640791,50.7945702 82.2640791,56.9163099 C82.2640791,63.873108 76.606305,69.5126444 69.6271853,69.5126444 L30.9267,69.5126444 C22.895401,69.5126444 17.5,64.2613113 17.5,57.7035809 C17.5,52.2197666 21.3746297,46.8316059 26.9776706,45.8945016 C26.9776706,36.4472508 35.6655354,32.5108963 41.9839825,35.6599799 C44.3534001,30.9363545 49.4496226,27 56.2004885,27 L56.2004892,27 Z" id="Cloud" stroke="#FFFFFF" stroke-width="2"></path>
            <path d="M21.5,66.3287526 L21.5,55.5 L17.7062995,55.5 C17.7692353,55.1636397 17.8461911,54.8299513 17.9366421,54.5 L21.5,54.5 L21.5,48.6120681 C21.8176784,48.3203898 22.1513707,48.0464651 22.5,47.7924792 L22.5,54.5 L35.5,54.5 L35.5,41.5 L27.6984567,41.5 C27.8216594,41.1543124 27.9592715,40.8209305 28.110212,40.5 L35.5,40.5 L35.5,34.771681 C35.8308536,34.7094828 36.1646315,34.663341 36.5,34.6334455 L36.5,40.5 L49.5,40.5 L49.5,28.4300339 C49.8259382,28.2813138 50.1593503,28.1427519 50.5,28.0150427 L50.5,40.5 L63.5,40.5 L63.5,28.7829038 C63.8414756,28.9622624 64.1749393,29.1535964 64.5,29.3561816 L64.5,40.5 L71.9382632,40.5 C71.99331,40.8315717 72.0377376,41.1650796 72.0712633,41.5 L64.5,41.5 L64.5,54.5 L77.5,54.5 L77.5,47.0547223 C77.8488512,47.3326154 78.1826586,47.6285454 78.5,47.9410848 L78.5,54.5 L82.0317086,54.5 C82.0958371,54.8289835 82.1471252,55.1624982 82.1850309,55.5 L78.5,55.5 L78.5,65.8854425 C78.1826676,66.1973822 77.8488614,66.4927135 77.5,66.7700225 L77.5,55.5 L64.5,55.5 L64.5,68.5 L74.599669,68.5 C73.2390362,69.0810883 71.7554038,69.4309482 70.1985138,69.5 L64.5,69.5 L64.5,69.5126444 L63.5,69.5126444 L63.5,69.5 L50.5,69.5 L50.5,69.5126444 L49.5,69.5126444 L49.5,69.5 L36.5,69.5 L36.5,69.5126444 L35.5,69.5126444 L35.5,69.5 L30.2481221,69.5 C28.4054942,69.4309127 26.7113162,69.0807609 25.2008821,68.5 L35.5,68.5 L35.5,55.5 L22.5,55.5 L22.5,67.0903587 C22.1504263,66.8514324 21.8168398,66.5972019 21.5,66.3287526 Z M52.1431674,27.5 L60.1764919,27.5 C58.9188911,27.1749788 57.5890672,27 56.2004892,27 L56.2004885,27 C54.7703979,27 53.4145601,27.1766454 52.1431674,27.5 Z M36.5,55.5 L36.5,68.5 L49.5,68.5 L49.5,55.5 L36.5,55.5 Z M36.5,54.5 L49.5,54.5 L49.5,41.5 L36.5,41.5 L36.5,54.5 Z M50.5,55.5 L50.5,68.5 L63.5,68.5 L63.5,55.5 L50.5,55.5 Z M50.5,54.5 L63.5,54.5 L63.5,41.5 L50.5,41.5 L50.5,54.5 Z" id="Combined-Shape" fill="#FFFFFF" opacity="0.745697464"></path>
        </g>
    </g>
</svg>