<?xml version="1.0" encoding="UTF-8"?>
<svg width="100px" height="100px" viewBox="0 0 100 100" version="1.1" xmlns="http://www.w3.org/2000/svg" xmlns:xlink="http://www.w3.org/1999/xlink">
    <!-- Generator: Sketch 47.1 (45422) - http://www.bohemiancoding.com/sketch -->
    <title>element-api-v2</title>
    <desc>Created with Sketch.</desc>
    <defs>
        <path d="M56.2004892,27 C66.0610537,27 72.9588235,35.8236535 72.0706868,44.5414191 C77.8780505,45.6778447 82.2640791,50.7945702 82.2640791,56.9163099 C82.2640791,63.873108 76.606305,69.5126444 69.6271853,69.5126444 L30.9267,69.5126444 C22.895401,69.5126444 17.5,64.2613113 17.5,57.7035809 C17.5,52.2197666 21.3746297,46.8316059 26.9776706,45.8945016 C26.9776706,36.4472508 35.6655354,32.5108963 41.9839825,35.6599799 C44.3534001,30.9363545 49.4496226,27 56.2004885,27 L56.2004892,27 Z" id="path-1"></path>
    </defs>
    <g id="Icons" stroke="none" stroke-width="1" fill="none" fill-rule="evenodd">
        <g id="element-api-v2">
            <circle id="Oval" fill="#0D78F2" fill-rule="nonzero" cx="50" cy="50" r="50"></circle>
            <mask id="mask-2" fill="white">
                <use xlink:href="#path-1"></use>
            </mask>
            <use id="Cloud" stroke="#FFFFFF" stroke-width="2" xlink:href="#path-1"></use>
            <path d="M21.5,55.5 L-1,55.5 L-1,54.5 L21.5,54.5 L21.5,41.5 L-1,41.5 L-1,40.5 L21.5,40.5 L21.5,27.5 L-1,27.5 L-1,26.5 L21.5,26.5 L21.5,23.280985 L22.5,23.280985 L22.5,26.5 L35.5,26.5 L35.5,23.280985 L36.5,23.280985 L36.5,26.5 L49.5,26.5 L49.5,23.280985 L50.5,23.280985 L50.5,26.5 L63.5,26.5 L63.5,23.280985 L64.5,23.280985 L64.5,26.5 L77.5,26.5 L77.5,23.280985 L78.5,23.280985 L78.5,26.5 L99,26.5 L99,27.5 L78.5,27.5 L78.5,40.5 L99,40.5 L99,41.5 L78.5,41.5 L78.5,54.5 L99,54.5 L99,55.5 L78.5,55.5 L78.5,68.5 L99,68.5 L99,69.5 L78.5,69.5 L78.5,74.7493965 L77.5,74.7493965 L77.5,69.5 L64.5,69.5 L64.5,74.7493965 L63.5,74.7493965 L63.5,69.5 L50.5,69.5 L50.5,74.7493965 L49.5,74.7493965 L49.5,69.5 L36.5,69.5 L36.5,74.7493965 L35.5,74.7493965 L35.5,69.5 L22.5,69.5 L22.5,74.7493965 L21.5,74.7493965 L21.5,69.5 L-1,69.5 L-1,68.5 L21.5,68.5 L21.5,55.5 Z M22.5,55.5 L22.5,68.5 L35.5,68.5 L35.5,55.5 L22.5,55.5 Z M22.5,54.5 L35.5,54.5 L35.5,41.5 L22.5,41.5 L22.5,54.5 Z M36.5,55.5 L36.5,68.5 L49.5,68.5 L49.5,55.5 L36.5,55.5 Z M36.5,54.5 L49.5,54.5 L49.5,41.5 L36.5,41.5 L36.5,54.5 Z M50.5,55.5 L50.5,68.5 L63.5,68.5 L63.5,55.5 L50.5,55.5 Z M50.5,54.5 L63.5,54.5 L63.5,41.5 L50.5,41.5 L50.5,54.5 Z M64.5,55.5 L64.5,68.5 L77.5,68.5 L77.5,55.5 L64.5,55.5 Z M64.5,54.5 L77.5,54.5 L77.5,41.5 L64.5,41.5 L64.5,54.5 Z M36.5,27.5 L36.5,40.5 L49.5,40.5 L49.5,27.5 L36.5,27.5 Z M35.5,27.5 L22.5,27.5 L22.5,40.5 L35.5,40.5 L35.5,27.5 Z M77.5,27.5 L64.5,27.5 L64.5,40.5 L77.5,40.5 L77.5,27.5 Z M63.5,27.5 L50.5,27.5 L50.5,40.5 L63.5,40.5 L63.5,27.5 Z" id="Combined-Shape" fill="#FFFFFF" opacity="0.745697464" mask="url(#mask-2)"></path>
        </g>
    </g>
</svg>