<?xml version="1.0" encoding="UTF-8"?>
<svg width="72px" height="72px" viewBox="0 0 72 72" version="1.1" xmlns="http://www.w3.org/2000/svg" xmlns:xlink="http://www.w3.org/1999/xlink">
    <!-- Generator: Sketch 42 (36781) - http://www.bohemiancoding.com/sketch -->
    <title>icon</title>
    <desc>Created with Sketch.</desc>
    <defs></defs>
    <g id="Take-2" stroke="none" stroke-width="1" fill="none" fill-rule="evenodd">
        <g id="icon">
            <circle id="Oval" fill="#0D78F2" cx="36" cy="36" r="36"></circle>
            <g id="Group-2" transform="translate(12.000000, 19.000000)" stroke="#FFFFFF" stroke-width="2">
                <path d="M19.1904423,0.215950848 C12.0908358,0.215950848 7.12444158,6.56898138 7.76390002,12.8457726 C3.58259815,13.663999 0.424657534,17.3480414 0.424657534,21.755694 C0.424657534,26.7645886 4.49825487,30.8250548 9.52322106,30.8250548 L37.3875705,30.8250548 C43.1701058,30.8250548 47.0547945,27.044095 47.0547945,22.3225291 C47.0547945,18.3741828 44.2650611,14.4947071 40.2308717,13.819992 C40.2308717,7.01797142 33.975609,4.18379618 29.4263271,6.45113638 C27.7203464,3.05012609 24.0510662,0.215950848 19.1904428,0.215950848 L19.1904423,0.215950848 Z" id="Shape" fill-rule="nonzero" transform="translate(23.739726, 15.520503) scale(-1, 1) translate(-23.739726, -15.520503) "></path>
                <polyline id="Path-12" points="7.40254344 14.0374755 10.7092332 22.922559 18.0236736 6.58632385 27.6835937 12.9075521 39.595352 12.9075521 29.8571882 29.9299243 27.7318903 12.6901716 10.7092332 22.922559 29.7135417 30.5716146"></polyline>
            </g>
        </g>
    </g>
</svg>
